<svg width="301" height="47" viewBox="0 0 301 47" fill="none" xmlns="http://www.w3.org/2000/svg">
<path d="M28.008 27.216C28.008 29.136 27.512 30.752 26.52 32.064C25.528 33.344 24.184 34.32 22.488 34.992C20.824 35.664 19 36 17.016 36H0.552V1.92H18.792C20.392 1.92 21.768 2.352 22.92 3.216C24.104 4.048 25 5.136 25.608 6.48C26.248 7.792 26.568 9.168 26.568 10.608C26.568 12.24 26.152 13.792 25.32 15.264C24.488 16.736 23.272 17.824 21.672 18.528C23.624 19.104 25.16 20.144 26.28 21.648C27.432 23.152 28.008 25.008 28.008 27.216ZM21.336 25.968C21.336 25.104 21.16 24.336 20.808 23.664C20.456 22.96 19.976 22.416 19.368 22.032C18.792 21.616 18.12 21.408 17.352 21.408H7.176V30.384H17.016C17.816 30.384 18.536 30.192 19.176 29.808C19.848 29.392 20.376 28.848 20.76 28.176C21.144 27.504 21.336 26.768 21.336 25.968ZM7.176 7.584V16.176H16.008C16.744 16.176 17.416 16 18.024 15.648C18.632 15.296 19.112 14.8 19.464 14.16C19.848 13.52 20.04 12.752 20.04 11.856C20.04 10.992 19.864 10.24 19.512 9.6C19.192 8.96 18.744 8.464 18.168 8.112C17.624 7.76 17 7.584 16.296 7.584H7.176ZM32.2193 26.592V10.848H38.6513V25.2C38.6513 27.12 39.0033 28.576 39.7073 29.568C40.4113 30.528 41.4513 31.008 42.8273 31.008C43.6593 31.008 44.4753 30.848 45.2753 30.528C46.1073 30.176 46.8593 29.664 47.5313 28.992C48.2353 28.32 48.8273 27.472 49.3073 26.448V10.848H55.7393V28.8C55.7393 29.472 55.8513 29.952 56.0753 30.24C56.3313 30.528 56.7313 30.704 57.2753 30.768V36C56.6353 36.096 56.0913 36.16 55.6433 36.192C55.2273 36.256 54.8433 36.288 54.4913 36.288C53.3393 36.288 52.3953 36.032 51.6593 35.52C50.9553 34.976 50.5393 34.24 50.4113 33.312L50.2673 31.296C49.1473 32.992 47.7073 34.288 45.9473 35.184C44.1873 36.048 42.2513 36.48 40.1393 36.48C37.5473 36.48 35.5793 35.648 34.2353 33.984C32.8913 32.288 32.2193 29.824 32.2193 26.592ZM60.5951 23.424C60.5951 20.992 61.0751 18.8 62.0351 16.848C62.9951 14.864 64.3231 13.296 66.0191 12.144C67.7151 10.992 69.6511 10.416 71.8271 10.416C73.6831 10.416 75.3471 10.88 76.8191 11.808C78.3231 12.704 79.4911 13.856 80.3231 15.264V0.959999H86.7551V28.8C86.7551 29.472 86.8671 29.952 87.0911 30.24C87.3151 30.528 87.6991 30.704 88.2431 30.768V36C87.1231 36.224 86.2111 36.336 85.5071 36.336C84.3551 36.336 83.3951 36.048 82.6271 35.472C81.8911 34.896 81.4751 34.144 81.3791 33.216L81.2831 31.632C80.3551 33.2 79.0911 34.4 77.4911 35.232C75.9231 36.064 74.2751 36.48 72.5471 36.48C70.8191 36.48 69.2191 36.144 67.7471 35.472C66.3071 34.8 65.0431 33.872 63.9551 32.688C62.8991 31.504 62.0671 30.128 61.4591 28.56C60.8831 26.96 60.5951 25.248 60.5951 23.424ZM80.3231 26.784V20.784C80.0031 19.856 79.4911 19.024 78.7871 18.288C78.0831 17.552 77.2991 16.976 76.4351 16.56C75.5711 16.112 74.7071 15.888 73.8431 15.888C72.8511 15.888 71.9551 16.096 71.1551 16.512C70.3551 16.928 69.6511 17.488 69.0431 18.192C68.4671 18.896 68.0191 19.712 67.6991 20.64C67.4111 21.568 67.2671 22.544 67.2671 23.568C67.2671 24.592 67.4271 25.568 67.7471 26.496C68.0991 27.392 68.5951 28.176 69.2351 28.848C69.8751 29.52 70.6111 30.048 71.4431 30.432C72.3071 30.816 73.2351 31.008 74.2271 31.008C74.8351 31.008 75.4431 30.912 76.0511 30.72C76.6911 30.496 77.2831 30.208 77.8271 29.856C78.4031 29.472 78.8991 29.024 79.3151 28.512C79.7631 27.968 80.0991 27.392 80.3231 26.784ZM102.909 36.144C101.245 36.144 99.7086 35.824 98.3006 35.184C96.9246 34.512 95.7246 33.584 94.7006 32.4C93.7086 31.216 92.9406 29.856 92.3966 28.32C91.8526 26.784 91.5806 25.152 91.5806 23.424C91.5806 21.6 91.8686 19.904 92.4446 18.336C93.0206 16.768 93.8206 15.392 94.8446 14.208C95.9006 12.992 97.1326 12.064 98.5406 11.424C99.9806 10.752 101.565 10.416 103.293 10.416C105.245 10.416 106.957 10.864 108.429 11.76C109.901 12.624 111.117 13.792 112.077 15.264V10.848H117.693V34.8C117.693 37.296 117.085 39.424 115.869 41.184C114.685 42.976 113.037 44.336 110.925 45.264C108.813 46.224 106.413 46.704 103.725 46.704C101.005 46.704 98.7006 46.24 96.8126 45.312C94.9246 44.416 93.3086 43.136 91.9646 41.472L95.4686 38.064C96.4286 39.248 97.6286 40.176 99.0686 40.848C100.541 41.52 102.093 41.856 103.725 41.856C105.101 41.856 106.349 41.6 107.469 41.088C108.621 40.608 109.533 39.84 110.205 38.784C110.909 37.76 111.261 36.432 111.261 34.8V31.632C110.429 33.072 109.245 34.192 107.709 34.992C106.205 35.76 104.605 36.144 102.909 36.144ZM105.069 31.008C105.773 31.008 106.445 30.896 107.085 30.672C107.725 30.448 108.317 30.144 108.861 29.76C109.405 29.376 109.885 28.928 110.301 28.416C110.717 27.872 111.037 27.328 111.261 26.784V20.784C110.877 19.792 110.333 18.928 109.629 18.192C108.957 17.456 108.189 16.896 107.325 16.512C106.493 16.096 105.613 15.888 104.685 15.888C103.693 15.888 102.797 16.096 101.997 16.512C101.197 16.928 100.509 17.52 99.9326 18.288C99.3566 19.024 98.9086 19.856 98.5886 20.784C98.3006 21.68 98.1566 22.624 98.1566 23.616C98.1566 24.64 98.3326 25.6 98.6846 26.496C99.0366 27.392 99.5166 28.176 100.125 28.848C100.765 29.52 101.501 30.048 102.333 30.432C103.197 30.816 104.109 31.008 105.069 31.008ZM135.155 36.48C133.139 36.48 131.315 36.144 129.683 35.472C128.051 34.768 126.659 33.824 125.507 32.64C124.355 31.424 123.459 30.048 122.819 28.512C122.211 26.944 121.907 25.296 121.907 23.568C121.907 21.168 122.435 18.976 123.491 16.992C124.579 15.008 126.115 13.424 128.099 12.24C130.115 11.024 132.483 10.416 135.203 10.416C137.955 10.416 140.307 11.024 142.259 12.24C144.211 13.424 145.699 15.008 146.723 16.992C147.779 18.944 148.307 21.056 148.307 23.328C148.307 23.712 148.291 24.112 148.259 24.528C148.227 24.912 148.195 25.232 148.163 25.488H128.723C128.851 26.768 129.219 27.888 129.827 28.848C130.467 29.808 131.267 30.544 132.227 31.056C133.219 31.536 134.275 31.776 135.395 31.776C136.675 31.776 137.875 31.472 138.995 30.864C140.147 30.224 140.931 29.392 141.347 28.368L146.867 29.904C146.259 31.184 145.379 32.32 144.227 33.312C143.107 34.304 141.779 35.088 140.243 35.664C138.707 36.208 137.011 36.48 135.155 36.48ZM128.579 21.408H141.731C141.603 20.128 141.235 19.024 140.627 18.096C140.051 17.136 139.283 16.4 138.323 15.888C137.363 15.344 136.291 15.072 135.107 15.072C133.955 15.072 132.899 15.344 131.939 15.888C131.011 16.4 130.243 17.136 129.635 18.096C129.059 19.024 128.707 20.128 128.579 21.408ZM167.063 34.704C166.519 34.928 165.863 35.184 165.095 35.472C164.327 35.76 163.495 35.984 162.599 36.144C161.735 36.336 160.855 36.432 159.959 36.432C158.775 36.432 157.687 36.224 156.695 35.808C155.703 35.392 154.903 34.736 154.295 33.84C153.719 32.912 153.431 31.712 153.431 30.24V15.792H150.119V10.848H153.431V2.688H159.863V10.848H165.143V15.792H159.863V28.08C159.895 28.944 160.135 29.568 160.583 29.952C161.031 30.336 161.591 30.528 162.263 30.528C162.935 30.528 163.591 30.416 164.231 30.192C164.871 29.968 165.383 29.776 165.767 29.616L167.063 34.704ZM191.34 10.848C191.116 10.624 190.7 10.32 190.092 9.936C189.516 9.552 188.796 9.184 187.932 8.832C187.1 8.48 186.188 8.176 185.196 7.92C184.204 7.632 183.196 7.488 182.172 7.488C180.38 7.488 179.02 7.824 178.092 8.496C177.196 9.168 176.748 10.112 176.748 11.328C176.748 12.256 177.036 12.992 177.612 13.536C178.188 14.08 179.052 14.544 180.204 14.928C181.356 15.312 182.796 15.728 184.524 16.176C186.764 16.72 188.7 17.392 190.332 18.192C191.996 18.96 193.26 19.984 194.124 21.264C195.02 22.512 195.468 24.176 195.468 26.256C195.468 28.08 195.132 29.648 194.46 30.96C193.788 32.24 192.86 33.28 191.676 34.08C190.492 34.88 189.148 35.472 187.644 35.856C186.14 36.208 184.54 36.384 182.844 36.384C181.148 36.384 179.452 36.208 177.756 35.856C176.06 35.504 174.428 35.008 172.86 34.368C171.292 33.696 169.852 32.896 168.54 31.968L171.468 26.256C171.756 26.544 172.268 26.928 173.004 27.408C173.74 27.856 174.636 28.32 175.692 28.8C176.748 29.248 177.9 29.632 179.148 29.952C180.396 30.272 181.66 30.432 182.94 30.432C184.732 30.432 186.092 30.128 187.02 29.52C187.948 28.912 188.412 28.048 188.412 26.928C188.412 25.904 188.044 25.104 187.308 24.528C186.572 23.952 185.548 23.456 184.236 23.04C182.924 22.592 181.372 22.112 179.58 21.6C177.436 20.992 175.644 20.32 174.204 19.584C172.764 18.816 171.692 17.856 170.988 16.704C170.284 15.552 169.932 14.112 169.932 12.384C169.932 10.048 170.476 8.096 171.564 6.528C172.684 4.928 174.188 3.728 176.076 2.928C177.964 2.096 180.06 1.68 182.364 1.68C183.964 1.68 185.468 1.856 186.876 2.208C188.316 2.56 189.66 3.024 190.908 3.6C192.156 4.176 193.276 4.8 194.268 5.472L191.34 10.848ZM211.562 36.48C209.514 36.48 207.674 36.144 206.042 35.472C204.41 34.768 203.018 33.808 201.866 32.592C200.714 31.344 199.818 29.936 199.178 28.368C198.57 26.8 198.266 25.152 198.266 23.424C198.266 21.056 198.794 18.896 199.85 16.944C200.938 14.96 202.474 13.376 204.458 12.192C206.442 11.008 208.794 10.416 211.514 10.416C214.234 10.416 216.57 11.008 218.522 12.192C220.474 13.376 221.93 14.928 222.89 16.848L216.602 18.768C216.058 17.84 215.338 17.136 214.442 16.656C213.546 16.144 212.554 15.888 211.466 15.888C210.25 15.888 209.13 16.208 208.106 16.848C207.114 17.456 206.33 18.336 205.754 19.488C205.178 20.608 204.89 21.92 204.89 23.424C204.89 24.896 205.178 26.208 205.754 27.36C206.362 28.48 207.162 29.376 208.154 30.048C209.146 30.688 210.25 31.008 211.466 31.008C212.234 31.008 212.954 30.88 213.626 30.624C214.33 30.368 214.954 30.016 215.498 29.568C216.042 29.12 216.442 28.608 216.698 28.032L222.986 29.952C222.41 31.2 221.562 32.32 220.442 33.312C219.354 34.304 218.058 35.088 216.554 35.664C215.082 36.208 213.418 36.48 211.562 36.48ZM238.325 36.48C236.277 36.48 234.437 36.144 232.805 35.472C231.173 34.768 229.781 33.808 228.629 32.592C227.509 31.376 226.645 29.984 226.037 28.416C225.429 26.848 225.125 25.2 225.125 23.472C225.125 21.712 225.429 20.048 226.037 18.48C226.645 16.912 227.509 15.52 228.629 14.304C229.781 13.088 231.173 12.144 232.805 11.472C234.437 10.768 236.277 10.416 238.325 10.416C240.373 10.416 242.197 10.768 243.797 11.472C245.429 12.144 246.821 13.088 247.973 14.304C249.125 15.52 249.989 16.912 250.565 18.48C251.173 20.048 251.477 21.712 251.477 23.472C251.477 25.2 251.173 26.848 250.565 28.416C249.989 29.984 249.125 31.376 247.973 32.592C246.853 33.808 245.477 34.768 243.845 35.472C242.213 36.144 240.373 36.48 238.325 36.48ZM231.749 23.472C231.749 24.944 232.037 26.256 232.613 27.408C233.189 28.528 233.973 29.408 234.965 30.048C235.957 30.688 237.077 31.008 238.325 31.008C239.541 31.008 240.645 30.688 241.637 30.048C242.629 29.376 243.413 28.48 243.989 27.36C244.597 26.208 244.901 24.896 244.901 23.424C244.901 21.984 244.597 20.688 243.989 19.536C243.413 18.384 242.629 17.488 241.637 16.848C240.645 16.208 239.541 15.888 238.325 15.888C237.077 15.888 235.957 16.224 234.965 16.896C233.973 17.536 233.189 18.432 232.613 19.584C232.037 20.704 231.749 22 231.749 23.472ZM255.579 26.592V10.848H262.011V25.2C262.011 27.12 262.363 28.576 263.067 29.568C263.771 30.528 264.811 31.008 266.187 31.008C267.019 31.008 267.835 30.848 268.635 30.528C269.467 30.176 270.219 29.664 270.891 28.992C271.595 28.32 272.187 27.472 272.667 26.448V10.848H279.099V28.8C279.099 29.472 279.211 29.952 279.435 30.24C279.691 30.528 280.091 30.704 280.635 30.768V36C279.995 36.096 279.451 36.16 279.003 36.192C278.587 36.256 278.203 36.288 277.851 36.288C276.699 36.288 275.755 36.032 275.019 35.52C274.315 34.976 273.899 34.24 273.771 33.312L273.627 31.296C272.507 32.992 271.067 34.288 269.307 35.184C267.547 36.048 265.611 36.48 263.499 36.48C260.907 36.48 258.939 35.648 257.595 33.984C256.251 32.288 255.579 29.824 255.579 26.592ZM300.469 34.704C299.925 34.928 299.269 35.184 298.501 35.472C297.733 35.76 296.901 35.984 296.005 36.144C295.141 36.336 294.261 36.432 293.365 36.432C292.181 36.432 291.093 36.224 290.101 35.808C289.109 35.392 288.309 34.736 287.701 33.84C287.125 32.912 286.837 31.712 286.837 30.24V15.792H283.525V10.848H286.837V2.688H293.269V10.848H298.549V15.792H293.269V28.08C293.301 28.944 293.541 29.568 293.989 29.952C294.437 30.336 294.997 30.528 295.669 30.528C296.341 30.528 296.997 30.416 297.637 30.192C298.277 29.968 298.789 29.776 299.173 29.616L300.469 34.704Z" fill="#4B4B4B"/>
</svg>
