<svg width="125" height="63" viewBox="0 0 125 63" fill="none" xmlns="http://www.w3.org/2000/svg">
<path d="M7.34375 27.1562C7.23958 27.0521 7.1875 26.8438 7.1875 26.5312C7.1875 25.9844 7.22656 25.7109 7.30469 25.7109C7.51302 25.7109 7.8125 25.6589 8.20312 25.5547C8.59375 25.4505 8.95833 25.3203 9.29688 25.1641C9.63542 25.0078 9.83073 24.8646 9.88281 24.7344C9.98698 24.3698 10.0521 23.9401 10.0781 23.4453C10.1302 22.9505 10.1562 22.3776 10.1562 21.7266V7.58594C10.1562 5.55469 10.0521 4.35677 9.84375 3.99219L9.64844 3.64062C9.54427 3.53646 9.20573 3.45833 8.63281 3.40625C8.0599 3.32812 7.39583 3.28906 6.64062 3.28906C5.57292 3.28906 4.70052 3.58854 4.02344 4.1875C3.34635 4.76042 2.82552 5.73698 2.46094 7.11719C2.40885 7.2474 2.27865 7.3125 2.07031 7.3125C1.4974 7.3125 1.11979 7.22135 0.9375 7.03906L1.67969 0.671875C2.2526 0.802083 2.76042 0.90625 3.20312 0.984375C3.64583 1.0625 4.03646 1.10156 4.375 1.10156C5.70312 1.10156 7.1224 1.14062 8.63281 1.21875C10.1693 1.29688 11.6016 1.33594 12.9297 1.33594C14.2578 1.33594 15.6901 1.29688 17.2266 1.21875C18.763 1.14062 20.1953 1.10156 21.5234 1.10156C21.862 1.10156 22.2526 1.0625 22.6953 0.984375C23.138 0.90625 23.6458 0.802083 24.2188 0.671875L24.9609 7.07812C24.7786 7.26042 24.401 7.35156 23.8281 7.35156C23.6198 7.35156 23.4896 7.28646 23.4375 7.15625C22.7865 4.57812 21.3932 3.28906 19.2578 3.28906C17.1745 3.28906 16.0677 3.52344 15.9375 3.99219C15.8333 4.35677 15.7552 4.82552 15.7031 5.39844C15.651 5.97135 15.625 6.66146 15.625 7.46875V21.5703C15.625 22.2214 15.651 22.8073 15.7031 23.3281C15.7552 23.849 15.8333 24.3177 15.9375 24.7344C15.9896 24.8385 16.1719 24.9688 16.4844 25.125C16.8229 25.2812 17.1745 25.4245 17.5391 25.5547C17.9297 25.6589 18.2031 25.7109 18.3594 25.7109C18.4635 25.7109 18.5156 25.9583 18.5156 26.4531C18.5156 26.7135 18.4896 26.9479 18.4375 27.1562C18.3333 27.1562 18.0859 27.1432 17.6953 27.1172C17.3047 27.0911 16.7708 27.0521 16.0938 27C15.4167 26.9479 14.8177 26.9089 14.2969 26.8828C13.776 26.8568 13.3464 26.8438 13.0078 26.8438C12.5391 26.8438 11.901 26.8698 11.0938 26.9219C10.2865 26.974 9.51823 27.013 8.78906 27.0391C8.08594 27.0911 7.60417 27.1302 7.34375 27.1562ZM30.9453 35.5156C30.1641 35.5156 29.526 35.3073 29.0312 34.8906C28.5625 34.474 28.3281 33.9922 28.3281 33.4453C28.3281 32.6641 28.6276 32.0521 29.2266 31.6094C32.5599 31.6094 34.7083 30.5938 35.6719 28.5625L36.8828 25.9844L30.8672 12.625C30.6068 12.0521 30.2031 11.6615 29.6562 11.4531C29.1354 11.2448 28.6797 11.1406 28.2891 11.1406C28.1849 11.1406 28.1328 10.9453 28.1328 10.5547C28.1328 10.0339 28.1589 9.7474 28.2109 9.69531C28.3151 9.69531 28.5625 9.70833 28.9531 9.73438C29.3698 9.76042 29.9427 9.79948 30.6719 9.85156C31.401 9.90365 32.013 9.94271 32.5078 9.96875C33.0286 9.99479 33.4453 10.0078 33.7578 10.0078C34.1484 10.0078 34.7083 9.98177 35.4375 9.92969C36.1667 9.8776 36.8698 9.82552 37.5469 9.77344C38.25 9.72135 38.6927 9.69531 38.875 9.69531C38.9531 9.92969 38.9922 10.2031 38.9922 10.5156C38.9922 10.9323 38.9401 11.1406 38.8359 11.1406C38.6276 11.1406 38.3281 11.1927 37.9375 11.2969C37.5469 11.401 37.1953 11.5312 36.8828 11.6875C36.5703 11.8177 36.4141 11.974 36.4141 12.1562C36.4661 12.5469 36.7396 13.3932 37.2344 14.6953C37.7552 15.9974 38.5104 17.8073 39.5 20.125C40.3854 18.1979 41.0625 16.7135 41.5312 15.6719C42.026 14.6042 42.3125 13.9792 42.3906 13.7969C42.5469 13.4323 42.625 13.0417 42.625 12.625C42.625 12.2865 42.3776 11.9609 41.8828 11.6484C41.388 11.3099 40.7109 11.1406 39.8516 11.1406C39.7474 11.1406 39.6953 10.9062 39.6953 10.4375C39.6953 10.2552 39.6953 10.112 39.6953 10.0078C39.7214 9.8776 39.7474 9.77344 39.7734 9.69531C39.9818 9.69531 40.4115 9.72135 41.0625 9.77344C41.7396 9.82552 42.4427 9.8776 43.1719 9.92969C43.901 9.98177 44.474 10.0078 44.8906 10.0078C45.1771 10.0078 45.5026 9.99479 45.8672 9.96875C46.2318 9.91667 46.6354 9.8776 47.0781 9.85156L49.0703 9.69531C49.1745 9.8776 49.2266 10.099 49.2266 10.3594C49.2266 10.8802 49.1745 11.1406 49.0703 11.1406C48.8099 11.1406 48.4453 11.2057 47.9766 11.3359C47.5339 11.4401 47.0911 11.6094 46.6484 11.8438C46.2318 12.0521 45.9453 12.3385 45.7891 12.7031L38.5234 28.4453C36.3359 33.1589 33.8099 35.5156 30.9453 35.5156ZM52.3203 35.5156C52.2161 35.4115 52.1641 35.151 52.1641 34.7344C52.1641 34.2917 52.2161 34.0703 52.3203 34.0703C52.5286 34.0703 52.8281 34.0052 53.2188 33.875C53.6094 33.7708 53.974 33.6406 54.3125 33.4844C54.651 33.3281 54.8333 33.1979 54.8594 33.0938C55.0417 32.3646 55.1328 31.375 55.1328 30.125V16.4141C55.1328 14.9557 54.8984 13.9792 54.4297 13.4844C54.2214 13.224 53.9349 13.0417 53.5703 12.9375C53.2318 12.8333 52.9323 12.7682 52.6719 12.7422C52.4115 12.6901 52.2812 12.638 52.2812 12.5859C52.2812 11.6745 52.3464 11.2188 52.4766 11.2188C53.2839 11.2188 54.2083 11.1276 55.25 10.9453C56.2917 10.737 57.4635 10.4505 58.7656 10.0859C59.5469 9.82552 59.9766 9.69531 60.0547 9.69531C60.2109 9.69531 60.2891 9.86458 60.2891 10.2031C60.2891 10.2812 60.276 10.3854 60.25 10.5156C60.25 10.6198 60.237 10.75 60.2109 10.9062C61.3307 10.0208 62.5286 9.57812 63.8047 9.57812C65.4714 9.57812 66.9427 9.98177 68.2188 10.7891C69.5208 11.5703 70.5365 12.612 71.2656 13.9141C72.0208 15.2161 72.3984 16.6224 72.3984 18.1328C72.3984 20.0599 71.9688 21.7135 71.1094 23.0938C70.276 24.4479 69.1172 25.4896 67.6328 26.2188C66.1745 26.9479 64.5078 27.3125 62.6328 27.3125C62.0078 27.3125 61.487 27.2474 61.0703 27.1172C60.6536 27.013 60.4193 26.9609 60.3672 26.9609C60.263 26.9609 60.2109 27.1693 60.2109 27.5859V29.5391C60.2109 31.2578 60.3021 32.4427 60.4844 33.0938C60.5365 33.1979 60.7318 33.3281 61.0703 33.4844C61.4089 33.6406 61.7604 33.7708 62.125 33.875C62.5156 34.0052 62.7891 34.0703 62.9453 34.0703C62.9974 34.0703 63.0365 34.1745 63.0625 34.3828C63.0885 34.5911 63.1016 34.8125 63.1016 35.0469C63.1016 35.2812 63.0755 35.4375 63.0234 35.5156C62.8672 35.5156 62.5677 35.4896 62.125 35.4375C61.6823 35.4115 61.1615 35.3724 60.5625 35.3203C59.9896 35.2943 59.4427 35.2682 58.9219 35.2422C58.401 35.2161 57.9844 35.2031 57.6719 35.2031C57.3594 35.2031 56.9297 35.2161 56.3828 35.2422C55.862 35.2682 55.3151 35.2943 54.7422 35.3203C54.1693 35.3724 53.6615 35.4115 53.2188 35.4375C52.776 35.4896 52.4766 35.5156 52.3203 35.5156ZM63.2578 25.2031C65.6016 25.2031 66.7734 23.276 66.7734 19.4219C66.7734 14.3698 65.5885 11.8438 63.2188 11.8438C62.3073 11.8438 61.5781 12.1172 61.0312 12.6641C60.4844 13.2109 60.2109 13.901 60.2109 14.7344V22.1172C60.2109 23.1068 60.5365 23.875 61.1875 24.4219C61.8385 24.9427 62.5286 25.2031 63.2578 25.2031ZM84.75 27.2734C83.1615 27.2734 81.6901 26.8698 80.3359 26.0625C79.0078 25.2552 77.9401 24.1745 77.1328 22.8203C76.3516 21.4661 75.9609 19.9818 75.9609 18.3672C75.9609 16.7005 76.3125 15.2031 77.0156 13.875C77.7448 12.5469 78.7474 11.4922 80.0234 10.7109C81.2995 9.92969 82.7708 9.53906 84.4375 9.53906C86.0781 9.53906 87.4714 9.92969 88.6172 10.7109C89.7891 11.4661 90.6745 12.4167 91.2734 13.5625C91.8984 14.6823 92.2109 15.8151 92.2109 16.9609C92.2109 17.5599 92.0807 17.9505 91.8203 18.1328C91.5859 18.3151 91.1042 18.4062 90.375 18.4062H81.5469C81.3906 18.4062 81.3125 18.4974 81.3125 18.6797C81.3125 19.6172 81.4818 20.5026 81.8203 21.3359C82.1849 22.1693 82.7057 22.8464 83.3828 23.3672C84.0859 23.888 84.9323 24.1484 85.9219 24.1484C86.8073 24.1484 87.6276 24.0182 88.3828 23.7578C88.9036 23.6016 89.3073 23.4583 89.5938 23.3281C89.8802 23.1979 90.1406 23.0547 90.375 22.8984C90.6354 22.7161 90.9349 22.4948 91.2734 22.2344C91.5078 22.3385 91.625 22.5859 91.625 22.9766C91.625 23.3151 91.5729 23.5755 91.4688 23.7578C91.3125 24.1745 90.8958 24.6562 90.2188 25.2031C89.5677 25.75 88.7604 26.2318 87.7969 26.6484C86.8594 27.0651 85.8438 27.2734 84.75 27.2734ZM81.5859 16.2578H86.5469C86.9115 16.2578 87.0938 16.0104 87.0938 15.5156C87.0938 14.526 86.8203 13.6406 86.2734 12.8594C85.7526 12.0781 85.0755 11.6875 84.2422 11.6875C83.487 11.6875 82.888 11.9609 82.4453 12.5078C82.0286 13.0286 81.7292 13.6146 81.5469 14.2656C81.3906 14.9167 81.3125 15.4505 81.3125 15.8672C81.3125 16.1276 81.4036 16.2578 81.5859 16.2578ZM1.21094 62.1562C1.10677 62.0521 1.05469 61.8307 1.05469 61.4922C1.05469 60.9714 1.10677 60.7109 1.21094 60.7109C1.41927 60.7109 1.71875 60.6719 2.10938 60.5938C2.5 60.5156 2.86458 60.4115 3.20312 60.2812C3.54167 60.125 3.73698 59.9818 3.78906 59.8516C3.94531 59.2526 4.02344 58.1068 4.02344 56.4141V41.6484C4.02344 40.1901 3.94531 39.1745 3.78906 38.6016C3.73698 38.4453 3.52865 38.2891 3.16406 38.1328C2.82552 37.9505 2.46094 37.8073 2.07031 37.7031C1.67969 37.5729 1.38021 37.5078 1.17188 37.5078C1.06771 37.5078 1.01562 37.2734 1.01562 36.8047C1.01562 36.388 1.05469 36.1406 1.13281 36.0625C2.30469 36.1146 3.3724 36.1667 4.33594 36.2188C5.29948 36.2448 6.14583 36.2578 6.875 36.2578C8.56771 36.2578 10.7552 36.2188 13.4375 36.1406C14.7917 36.1146 15.9635 36.1016 16.9531 36.1016C17.9688 36.0755 18.8151 36.0625 19.4922 36.0625C19.5182 36.1927 19.6224 36.7396 19.8047 37.7031C19.987 38.6667 20.2604 40.0469 20.625 41.8438C20.4948 41.974 20.1953 42.0391 19.7266 42.0391C19.4401 42.0391 19.2578 41.9479 19.1797 41.7656C18.8672 41.0885 18.3984 40.4896 17.7734 39.9688C17.1745 39.4219 16.5104 38.9922 15.7812 38.6797C15.0781 38.3411 14.388 38.1719 13.7109 38.1719H12.2266C10.5599 38.1719 9.71354 38.3411 9.6875 38.6797C9.63542 38.9922 9.58333 39.4089 9.53125 39.9297C9.50521 40.4245 9.49219 41.0234 9.49219 41.7266V47.7422C9.49219 47.8984 10.0521 47.9766 11.1719 47.9766H13.2422C14.8828 47.9766 15.7682 47.9245 15.8984 47.8203C16.0286 47.6901 16.1328 47.3125 16.2109 46.6875C16.263 46.2708 16.3411 45.8932 16.4453 45.5547C16.4714 45.3724 16.6667 45.2812 17.0312 45.2812C17.474 45.2812 17.7604 45.3464 17.8906 45.4766V52.8594C17.7865 52.9635 17.513 53.0156 17.0703 53.0156C16.7318 53.0156 16.5234 52.9115 16.4453 52.7031C16.1328 51.6875 15.9245 51.0625 15.8203 50.8281C15.7161 50.6458 15.638 50.5677 15.5859 50.5938C15.5599 50.5938 15.4818 50.5417 15.3516 50.4375C14.987 50.2292 13.9714 50.125 12.3047 50.125C10.4297 50.125 9.49219 50.2422 9.49219 50.4766V56.4922C9.49219 57.8724 9.58333 58.9401 9.76562 59.6953C9.81771 59.9036 10.0391 60.0859 10.4297 60.2422C10.8203 60.3984 11.25 60.5156 11.7188 60.5938C12.1875 60.6719 12.5521 60.7109 12.8125 60.7109C12.9167 60.7109 12.9688 60.9583 12.9688 61.4531C12.9688 61.7135 12.9427 61.9479 12.8906 62.1562C9.76562 62 7.77344 61.9219 6.91406 61.9219L1.21094 62.1562ZM29.3828 62.2734C27.9505 62.2734 26.8047 61.8828 25.9453 61.1016C25.112 60.2943 24.6953 59.2917 24.6953 58.0938C24.6953 57.0781 25.0078 56.1927 25.6328 55.4375C26.2839 54.6823 27.0911 54.0833 28.0547 53.6406C28.4193 53.4844 28.7578 53.3542 29.0703 53.25C29.3828 53.1198 29.6693 53.0026 29.9297 52.8984C30.9193 52.5859 31.7135 52.3646 32.3125 52.2344C32.9115 52.0781 33.3542 51.9479 33.6406 51.8438C33.875 51.7656 33.9922 51.5703 33.9922 51.2578V49.8516C33.9922 47.7161 33.3411 46.6484 32.0391 46.6484C30.5286 46.6484 29.7734 47.5208 29.7734 49.2656C29.7734 49.8385 29.5391 50.2682 29.0703 50.5547C28.6016 50.8151 28.0807 50.9453 27.5078 50.9453C26.3099 50.9453 25.4896 50.5547 25.0469 49.7734C25.0469 49.0964 25.2812 48.4453 25.75 47.8203C26.2448 47.1953 26.8828 46.6354 27.6641 46.1406C28.4714 45.6198 29.3698 45.2161 30.3594 44.9297C31.375 44.6172 32.3906 44.4609 33.4062 44.4609C35.2292 44.4609 36.6224 44.9688 37.5859 45.9844C38.5755 46.974 39.0703 48.7839 39.0703 51.4141V57.7422C39.0703 58.6276 39.3828 59.0703 40.0078 59.0703C40.4766 59.0703 40.9193 58.901 41.3359 58.5625C41.5182 58.6667 41.6094 58.862 41.6094 59.1484C41.6094 59.8255 41.5182 60.3073 41.3359 60.5938C40.9714 60.9323 40.3724 61.2969 39.5391 61.6875C38.7318 62.0521 37.9635 62.2344 37.2344 62.2344C36.6094 62.2344 36.0104 62.0521 35.4375 61.6875C34.8646 61.2969 34.487 60.8542 34.3047 60.3594C34.2786 60.3594 34.1354 60.4505 33.875 60.6328C33.6146 60.8151 33.4193 60.9583 33.2891 61.0625C32.7682 61.401 32.1693 61.6875 31.4922 61.9219C30.8151 62.1562 30.112 62.2734 29.3828 62.2734ZM31.8438 59.4609C32.5208 59.4609 33.0417 59.3047 33.4062 58.9922C33.7969 58.6536 33.9922 58.25 33.9922 57.7812V53.8359L31.9609 54.5391C31.4141 54.7214 30.9062 54.9948 30.4375 55.3594C29.9948 55.724 29.7734 56.2057 29.7734 56.8047C29.7734 57.7422 29.9688 58.4193 30.3594 58.8359C30.776 59.2526 31.2708 59.4609 31.8438 59.4609ZM51.7344 62.3906C51.1354 62.3906 50.4714 62.3255 49.7422 62.1953C49.013 62.0651 48.3359 61.8828 47.7109 61.6484C47.0859 61.4141 46.6042 61.1667 46.2656 60.9062C45.9531 59.1094 45.7969 57.5208 45.7969 56.1406C45.9271 56.0625 46.1224 56.0234 46.3828 56.0234C47.2161 56.0234 47.6458 56.1406 47.6719 56.375C48.1146 58.9531 49.5208 60.2422 51.8906 60.2422C52.5156 60.2422 53.0365 60.099 53.4531 59.8125C53.8698 59.526 54.0781 59.0964 54.0781 58.5234C54.0781 57.9766 53.8568 57.5078 53.4141 57.1172C52.9714 56.7266 52.4505 56.375 51.8516 56.0625C51.2526 55.75 50.7057 55.4635 50.2109 55.2031C48.7005 54.474 47.5807 53.6797 46.8516 52.8203C46.1224 51.9349 45.7578 50.8542 45.7578 49.5781C45.7578 48.3802 46.0703 47.4167 46.6953 46.6875C47.3203 45.9323 48.1536 45.3724 49.1953 45.0078C50.237 44.6432 51.3568 44.4609 52.5547 44.4609C54.8203 44.4609 56.513 44.7214 57.6328 45.2422C57.8932 46.388 58.0234 48.0026 58.0234 50.0859C58.0234 50.3203 57.8542 50.4375 57.5156 50.4375C56.7083 50.4375 56.2786 50.3333 56.2266 50.125C55.9922 49.0312 55.5885 48.1719 55.0156 47.5469C54.4688 46.9219 53.5833 46.6094 52.3594 46.6094C51.7865 46.6094 51.3177 46.7526 50.9531 47.0391C50.5885 47.2995 50.4062 47.6901 50.4062 48.2109C50.4062 48.8099 50.6667 49.3307 51.1875 49.7734C51.7083 50.1901 52.4766 50.6458 53.4922 51.1406C54.3516 51.5312 55.1849 51.987 55.9922 52.5078C56.7995 53.0026 57.4505 53.6276 57.9453 54.3828C58.4661 55.112 58.7266 56.0365 58.7266 57.1562C58.7266 58.875 58.0625 60.1771 56.7344 61.0625C55.4323 61.9479 53.7656 62.3906 51.7344 62.3906ZM70.5703 62.2734C69.138 62.2734 67.901 61.8307 66.8594 60.9453C65.8438 60.0339 65.3359 58.5755 65.3359 56.5703V47.5469H62.7969C62.5885 47.5469 62.4844 47.1432 62.4844 46.3359C62.4844 46.1536 62.5104 46.0104 62.5625 45.9062C63.2917 45.5417 63.9427 45.1901 64.5156 44.8516C65.1146 44.487 65.6354 44.1354 66.0781 43.7969C67.224 42.8854 68.0573 42.1953 68.5781 41.7266C69.099 41.2578 69.3724 41.0104 69.3984 40.9844C69.6068 40.9844 69.8281 41.0365 70.0625 41.1406C70.2969 41.2188 70.4141 41.3099 70.4141 41.4141V45.2422H74.6328C74.8411 45.2422 74.9453 45.3724 74.9453 45.6328C74.9453 46.4141 74.8151 47.0521 74.5547 47.5469H70.4141V56.8047C70.4141 58.7839 71.1172 59.7734 72.5234 59.7734C73.2526 59.7734 73.7604 59.6823 74.0469 59.5C74.3594 59.2917 74.5677 59.1875 74.6719 59.1875C74.776 59.1875 74.8802 59.3177 74.9844 59.5781C75.1146 59.8385 75.1797 60.0339 75.1797 60.1641C75.1797 60.3724 74.9193 60.6458 74.3984 60.9844C73.9036 61.3229 73.2917 61.6224 72.5625 61.8828C71.8594 62.1432 71.1953 62.2734 70.5703 62.2734ZM87.5312 62.2734C85.9427 62.2734 84.4714 61.8698 83.1172 61.0625C81.7891 60.2552 80.7214 59.1745 79.9141 57.8203C79.1328 56.4661 78.7422 54.9818 78.7422 53.3672C78.7422 51.7005 79.0938 50.2031 79.7969 48.875C80.526 47.5469 81.5286 46.4922 82.8047 45.7109C84.0807 44.9297 85.5521 44.5391 87.2188 44.5391C88.8594 44.5391 90.2526 44.9297 91.3984 45.7109C92.5703 46.4661 93.4557 47.4167 94.0547 48.5625C94.6797 49.6823 94.9922 50.8151 94.9922 51.9609C94.9922 52.5599 94.862 52.9505 94.6016 53.1328C94.3672 53.3151 93.8854 53.4062 93.1562 53.4062H84.3281C84.1719 53.4062 84.0938 53.4974 84.0938 53.6797C84.0938 54.6172 84.263 55.5026 84.6016 56.3359C84.9661 57.1693 85.487 57.8464 86.1641 58.3672C86.8672 58.888 87.7135 59.1484 88.7031 59.1484C89.5885 59.1484 90.4089 59.0182 91.1641 58.7578C91.6849 58.6016 92.0885 58.4583 92.375 58.3281C92.6615 58.1979 92.9219 58.0547 93.1562 57.8984C93.4167 57.7161 93.7161 57.4948 94.0547 57.2344C94.2891 57.3385 94.4062 57.5859 94.4062 57.9766C94.4062 58.3151 94.3542 58.5755 94.25 58.7578C94.0938 59.1745 93.6771 59.6562 93 60.2031C92.349 60.75 91.5417 61.2318 90.5781 61.6484C89.6406 62.0651 88.625 62.2734 87.5312 62.2734ZM84.3672 51.2578H89.3281C89.6927 51.2578 89.875 51.0104 89.875 50.5156C89.875 49.526 89.6016 48.6406 89.0547 47.8594C88.5339 47.0781 87.8568 46.6875 87.0234 46.6875C86.2682 46.6875 85.6693 46.9609 85.2266 47.5078C84.8099 48.0286 84.5104 48.6146 84.3281 49.2656C84.1719 49.9167 84.0938 50.4505 84.0938 50.8672C84.0938 51.1276 84.1849 51.2578 84.3672 51.2578ZM99.375 62.1562C99.2708 62.0521 99.2188 61.7786 99.2188 61.3359C99.2188 60.9193 99.2708 60.7109 99.375 60.7109C99.5833 60.7109 99.8828 60.6589 100.273 60.5547C100.664 60.4245 101.029 60.2812 101.367 60.125C101.706 59.9688 101.888 59.8385 101.914 59.7344C102.096 59.0052 102.188 58.0156 102.188 56.7656V51.4141C102.188 49.9557 101.953 48.9792 101.484 48.4844C101.276 48.224 100.99 48.0417 100.625 47.9375C100.286 47.8333 99.987 47.7682 99.7266 47.7422C99.4661 47.6901 99.3359 47.638 99.3359 47.5859C99.3359 46.6745 99.401 46.2188 99.5312 46.2188C100.208 46.2188 101.146 46.0755 102.344 45.7891C103.568 45.4766 104.857 45.1771 106.211 44.8906L107.109 44.6953C107.24 44.6953 107.37 44.7865 107.5 44.9688C107.63 45.125 107.695 45.2552 107.695 45.3594C107.669 45.5156 107.63 45.8281 107.578 46.2969C107.552 46.7656 107.526 47.026 107.5 47.0781C108.802 45.3854 110.273 44.5391 111.914 44.5391C113.086 44.5391 114.206 45.0208 115.273 45.9844C115.273 47.3385 115.104 48.3411 114.766 48.9922C114.453 49.6432 113.867 49.9688 113.008 49.9688C112.487 49.9688 111.888 49.6693 111.211 49.0703C110.534 48.4714 109.935 48.1719 109.414 48.1719C108.893 48.1719 108.477 48.3802 108.164 48.7969C107.852 49.1875 107.617 49.6953 107.461 50.3203C107.331 50.9453 107.266 51.5964 107.266 52.2734V56.2188C107.266 57.9115 107.357 59.0833 107.539 59.7344C107.591 59.8385 107.773 59.9688 108.086 60.125C108.398 60.2812 108.737 60.4245 109.102 60.5547C109.466 60.6589 109.714 60.7109 109.844 60.7109C109.896 60.7109 109.935 60.8151 109.961 61.0234C109.987 61.2318 110 61.4531 110 61.6875C110 61.9219 109.974 62.0781 109.922 62.1562C109.714 62.1302 109.271 62.0911 108.594 62.0391C107.917 62.013 107.201 61.974 106.445 61.9219C105.716 61.8698 105.143 61.8438 104.727 61.8438C104.414 61.8438 103.984 61.8568 103.438 61.8828C102.917 61.9089 102.37 61.9479 101.797 62C101.224 62.026 100.716 62.0521 100.273 62.0781C99.8307 62.1302 99.5312 62.1562 99.375 62.1562ZM121.922 54.5781C121.583 54.5781 121.362 54.2917 121.258 53.7188C121.154 53.1198 121.036 52.3125 120.906 51.2969C120.776 50.2812 120.633 49.1745 120.477 47.9766C120.346 46.7786 120.216 45.6068 120.086 44.4609C119.956 43.3151 119.852 42.2995 119.773 41.4141C119.695 40.5286 119.656 39.9036 119.656 39.5391C119.656 38.7318 119.904 38.0938 120.398 37.625C120.893 37.1562 121.505 36.9219 122.234 36.9219C122.885 36.9219 123.445 37.1693 123.914 37.6641C124.409 38.1328 124.656 38.7708 124.656 39.5781C124.656 39.7865 124.617 40.2812 124.539 41.0625C124.461 41.8177 124.357 42.7422 124.227 43.8359C124.096 44.9297 123.953 46.0755 123.797 47.2734C123.667 48.4453 123.523 49.5781 123.367 50.6719C123.237 51.7396 123.12 52.638 123.016 53.3672C122.911 54.1745 122.547 54.5781 121.922 54.5781ZM122.195 62.4297C121.232 62.4297 120.503 62.1172 120.008 61.4922C119.513 60.8672 119.266 60.1901 119.266 59.4609C119.266 58.7318 119.5 58.0677 119.969 57.4688C120.438 56.8698 121.154 56.5703 122.117 56.5703C122.898 56.5703 123.562 56.8568 124.109 57.4297C124.682 57.9766 124.969 58.6406 124.969 59.4219C124.969 60.2292 124.695 60.9323 124.148 61.5312C123.628 62.1302 122.977 62.4297 122.195 62.4297Z" fill="black"/>
</svg>
