<svg width="20" height="18" viewBox="0 0 20 18" fill="none" xmlns="http://www.w3.org/2000/svg">
<path d="M13.9745 11.3208H13.0913L12.7783 11.0429C13.8739 9.86964 14.5335 8.34648 14.5335 6.68954C14.5335 2.99485 11.2802 0 7.26676 0C3.25327 0 0 2.99485 0 6.68954C0 10.3842 3.25327 13.3791 7.26676 13.3791C9.06668 13.3791 10.7213 12.7719 11.9957 11.7633L12.2976 12.0515V12.8645L17.8874 18L19.5532 16.4666L13.9745 11.3208ZM7.26676 11.3208C4.48303 11.3208 2.23592 9.25214 2.23592 6.68954C2.23592 4.12693 4.48303 2.05832 7.26676 2.05832C10.0505 2.05832 12.2976 4.12693 12.2976 6.68954C12.2976 9.25214 10.0505 11.3208 7.26676 11.3208Z" fill="#BABABA"/>
</svg>
